<?xml version="1.0" standalone="no"?><!DOCTYPE svg PUBLIC "-//W3C//DTD SVG 1.1//EN" "http://www.w3.org/Graphics/SVG/1.1/DTD/svg11.dtd"><svg xmlns="http://www.w3.org/2000/svg" class="NJ-lib-svg" viewBox="0 0 700 450" width="700" height="450" version="1.1"><defs><style type="text/css"><![CDATA[
.NJ-model-pie, .NJ-model-scatterplot-matrix { font: 10px/normal "Nanum Gothic"; font-size-adjust: none; font-stretch: normal; }
.NJ-model-pie .arc path { stroke: #fff; }

]]></style></defs><g class="NJ-model-pie" transform="translate(50 50)"><g class="arc" transform="translate(300 175)"><path style="fill: #f3e57c;" d="M 1.05013e-014 -171.5 A 171.5 171.5 0 0 1 147.667 87.2158 L 0 0 Z"><title>도농도서관: 11,764</title></path><text style="fill: #ffffff; text-anchor: middle;" transform="translate(74.473 -42.507)" dy="0.35em">도농도서관</text></g><g class="arc" transform="translate(300 175)"><path style="fill: #00e5e3;" d="M 147.667 87.2158 A 171.5 171.5 0 0 1 109.227 132.218 L 0 0 Z"><title>평내도서관: 1,939</title></path><text style="fill: #ffffff; text-anchor: middle;" transform="translate(65.2016 55.694)" dy="0.35em">평내도서관</text></g><g class="arc" transform="translate(300 175)"><path style="fill: #b6e700;" d="M 109.227 132.218 A 171.5 171.5 0 0 1 -27.8234 169.228 L 0 0 Z"><title>와부도서관: 4,771</title></path><text style="fill: #ffffff; text-anchor: middle;" transform="translate(22.3554 82.7846)" dy="0.35em">와부도서관</text></g><g class="arc" transform="translate(300 175)"><path style="fill: #8707e0;" d="M -27.8234 169.228 A 171.5 171.5 0 0 1 -104.087 136.302 L 0 0 Z"><title>화도도서관: 2,735</title></path><text style="fill: #ffffff; text-anchor: middle;" transform="translate(-33.9894 78.726)" dy="0.35em">화도도서관</text></g><g class="arc" transform="translate(300 175)"><path style="fill: #00c260;" d="M -104.087 136.302 A 171.5 171.5 0 0 1 -161.386 58.0234 L 0 0 Z"><title>진건도서관: 3,206</title></path><text style="fill: #ffffff; text-anchor: middle;" transform="translate(-69.1934 50.6492)" dy="0.35em">진건도서관</text></g><g class="arc" transform="translate(300 175)"><path style="fill: #2b22e5;" d="M -161.386 58.0234 A 171.5 171.5 0 0 1 -156.148 -70.9239 L 0 0 Z"><title>별내도서관: 4,313</title></path><text style="fill: #ffffff; text-anchor: middle;" transform="translate(-85.6793 -3.4809)" dy="0.35em">별내도서관</text></g><g class="arc" transform="translate(300 175)"><path style="fill: #f9c300;" d="M -156.148 -70.9239 A 171.5 171.5 0 0 1 -117.106 -125.293 L 0 0 Z"><title>오남도서관: 2,196</title></path><text style="fill: #ffffff; text-anchor: middle;" transform="translate(-69.6525 -50.0159)" dy="0.35em">오남도서관</text></g><g class="arc" transform="translate(300 175)"><path style="fill: #ff0000;" d="M -117.106 -125.293 A 171.5 171.5 0 0 1 -58.2976 -161.287 L 0 0 Z"><title>퇴계원도서관: 2,263</title></path><text style="fill: #ffffff; text-anchor: middle;" transform="translate(-44.7647 -73.1381)" dy="0.35em">퇴계원도서관</text></g><g class="arc" transform="translate(300 175)"><path style="fill: #f3e57c;" d="M -58.2976 -161.287 A 171.5 171.5 0 0 1 -33.6479 -168.167 L 0 0 Z"><title>진접도서관: 835</title></path><text style="fill: #ffffff; text-anchor: middle;" transform="translate(-23.0506 -82.5938)" dy="0.35em">진접도서관</text></g><g class="arc" transform="translate(300 175)"><path style="fill: #00e5e3;" d="M -33.6479 -168.167 A 171.5 171.5 0 0 1 1.20819e-013 -171.5 L 0 0 Z"><title>진접푸른숲 도서관: 1,104</title></path><text style="fill: #ffffff; text-anchor: middle;" transform="translate(-8.45315 -85.3323)" dy="0.35em">진접푸른숲 도서관</text></g></g></svg>